<?xml version="1.0" encoding="UTF-8"?>
<svg width="112px" height="22px" viewBox="0 0 112 22" version="1.1" xmlns="http://www.w3.org/2000/svg" xmlns:xlink="http://www.w3.org/1999/xlink">
    <!-- Generator: Sketch 52.6 (67491) - http://www.bohemiancoding.com/sketch -->
    <title>Combined Shape</title>
    <desc>Created with Sketch.</desc>
    <defs>
        <linearGradient x1="0%" y1="49.9872085%" x2="100.003031%" y2="49.9872085%" id="linearGradient-1">
            <stop stop-color="#FFA759" offset="0%"></stop>
            <stop stop-color="#FE844C" offset="100%"></stop>
        </linearGradient>
    </defs>
    <g id="Specs" stroke="none" stroke-width="1" fill="none" fill-rule="evenodd">
        <path d="M89.58768,6.2854 L91.26488,6.2854 C95.73816,6.2854 97.97536,7.85675 97.97536,11 C97.97536,14.1427 95.73816,15.7146 91.26488,15.7146 L86.23216,15.7146 C86.23216,17.809 87.35048,18.85675 89.58768,18.85675 L96.2976,18.85675 L96.2976,22 L89.58768,22 C85.11328,22 82.8772,19.9045 82.8772,15.7146 L82.8772,12.57135 C82.8772,8.3809 85.11328,6.2854 89.58768,6.2854 Z M89.58768,9.4281 C87.35048,9.4281 86.23216,10.47585 86.23216,12.57135 L91.26488,12.57135 C93.50152,12.57135 94.6204,12.0472 94.6204,11 C94.6204,9.9528 93.50152,9.4281 91.26488,9.4281 L89.58768,9.4281 Z M35.02352,1.95399252e-14 L38.37848,1.95399252e-14 L38.37848,6.2854 L43.4112,6.2854 C47.88448,6.2854 50.12168,8.3809 50.12168,12.57135 L50.12168,15.7146 C50.12168,19.9045 47.88448,22 43.4112,22 L41.734,22 C37.2596,22 35.02352,19.9045 35.02352,15.7146 L35.02352,1.95399252e-14 Z M38.37848,15.7146 C38.37848,17.809 39.49624,18.85675 41.734,18.85675 L43.4112,18.85675 C45.64784,18.85675 46.76616,17.809 46.76616,15.7146 L46.76616,12.57135 C46.76616,10.47585 45.64784,9.4281 43.4112,9.4281 L38.37848,9.4281 L38.37848,15.7146 Z M106.96672,6.2854 L112,6.2854 L112,9.4281 L106.96672,9.4281 C104.73008,9.4281 103.61176,10.47585 103.61176,12.57135 L103.61176,18.85675 L100.25736,22 L100.25736,12.57135 C100.25736,8.3809 102.49344,6.2854 106.96672,6.2854 Z M29.16872,6.28485 L32.52424,6.28485 L32.52424,15.7146 C32.52424,19.9045 30.28704,22 25.81376,22 L24.13656,22 C19.66272,22 17.42608,19.9045 17.42608,15.7146 L17.42608,6.28485 L20.7816,6.28485 L20.7816,15.7146 C20.7816,17.809 21.89936,18.85675 24.13656,18.85675 L25.81376,18.85675 C28.0504,18.85675 29.16872,17.809 29.16872,15.7146 L29.16872,6.28485 Z M59.16008,6.28485 L60.83728,6.28485 C65.31056,6.28485 67.54776,7.85675 67.54776,11 L64.19224,11 C64.19224,9.9528 63.07336,9.4281 60.83728,9.4281 L59.16008,9.4281 C56.92288,9.4281 55.80456,9.9528 55.80456,11 C55.80456,11.73315 57.7612,12.3618 61.67616,12.8854 C65.59,13.40955 67.54776,14.87585 67.54776,17.28485 C67.54776,20.4281 65.31056,22 60.83728,22 L59.16008,22 C54.68624,22 52.44904,20.4281 52.44904,17.28485 L55.80456,17.28485 C55.80456,18.33315 56.92288,18.85675 59.16008,18.85675 L60.83728,18.85675 C63.07336,18.85675 64.19224,18.33315 64.19224,17.28485 C64.19224,16.55225 62.23504,15.9236 58.32064,15.4 C54.40624,14.87585 52.44904,13.40955 52.44904,11 C52.44904,7.85675 54.68624,6.28485 59.16008,6.28485 Z M0,1.95399252e-14 L3.35496,1.95399252e-14 L3.35496,6.2854 L8.38768,6.2854 C12.86096,6.2854 15.09816,8.3809 15.09816,12.57135 L15.09816,22 L11.7432,22 L11.7432,12.57135 C11.7432,10.47585 10.62432,9.4281 8.38768,9.4281 L3.35496,9.4281 L3.35496,18.85675 L0,22 L0,1.95399252e-14 Z M71.10432,1.95399252e-14 L74.45928,1.95399252e-14 L74.45928,6.2854 L81.16976,6.2854 L81.16976,9.4281 L74.45928,9.4281 L74.45928,15.7146 C74.45928,17.809 75.5776,18.85675 77.81424,18.85675 L81.15912,18.85675 L77.80416,21.99945 C73.33704,21.99615 71.10432,19.9012 71.10432,15.7146 L71.10432,9.4281 L69.42656,9.4281 L69.42656,6.2854 L71.10432,6.2854 L71.10432,1.95399252e-14 Z" id="Combined-Shape" fill="url(#linearGradient-1)"></path>
    </g>
</svg>